<svg xmlns="http://www.w3.org/2000/svg" width="28" height="28" fill="none"><path fill="#101828" d="M0 3a3 3 0 0 1 3-3h6a3 3 0 0 1 3 3v6a3 3 0 0 1-3 3H3a3 3 0 0 1-3-3V3Zm3-1a1 1 0 0 0-1 1v6a1 1 0 0 0 1 1h6a1 1 0 0 0 1-1V3a1 1 0 0 0-1-1H3Zm13 1a3 3 0 0 1 3-3h6a3 3 0 0 1 3 3v6a3 3 0 0 1-3 3h-6a3 3 0 0 1-3-3V3Zm3-1a1 1 0 0 0-1 1v6a1 1 0 0 0 1 1h6a1 1 0 0 0 1-1V3a1 1 0 0 0-1-1h-6ZM0 19a3 3 0 0 1 3-3h6a3 3 0 0 1 3 3v6a3 3 0 0 1-3 3H3a3 3 0 0 1-3-3v-6Zm3-1a1 1 0 0 0-1 1v6a1 1 0 0 0 1 1h6a1 1 0 0 0 1-1v-6a1 1 0 0 0-1-1H3Zm13 1a3 3 0 0 1 3-3h6a3 3 0 0 1 3 3v6a3 3 0 0 1-3 3h-6a3 3 0 0 1-3-3v-6Zm3-1a1 1 0 0 0-1 1v6a1 1 0 0 0 1 1h6a1 1 0 0 0 1-1v-6a1 1 0 0 0-1-1h-6Z"/></svg>