<svg aria-hidden="true" style="position: absolute; width: 0; height: 0; overflow: hidden;" version="1.1"
    xmlns="http://www.w3.org/2000/svg" xmlns:xlink="http://www.w3.org/1999/xlink">
    <defs>
        <symbol id="location" viewBox="0 0 32 32">
            <path
                d="M31.649 0.226c0.224 0.185 0.367 0.462 0.367 0.773 0 0.001 0 0.001 0 0.002v-0 28.014c-0.001 0.483-0.343 0.885-0.799 0.979l-0.006 0.001-10.005 2.001c-0.059 0.012-0.127 0.019-0.196 0.019s-0.137-0.007-0.203-0.020l0.006 0.001-9.808-1.961-9.808 1.961c-0.059 0.012-0.127 0.020-0.197 0.020-0.552 0-1-0.447-1-0.999v-28.014c0-0 0-0 0-0 0-0.483 0.342-0.886 0.797-0.98l0.006-0.001 10.005-2.001c0.059-0.012 0.127-0.019 0.196-0.019s0.137 0.007 0.203 0.021l-0.006-0.001 9.81 1.961 9.81-1.961c0.059-0.012 0.127-0.019 0.196-0.019 0.241 0 0.462 0.085 0.635 0.227l-0.002-0.001zM20.010 3.821l-8.004-1.601v25.973l8.004 1.601v-25.973zM22.011 29.794l8.004-1.601v-25.973l-8.004 1.601v25.973zM10.005 28.193v-25.973l-8.004 1.601v25.973l8.004-1.601z">
            </path>
        </symbol>
        <symbol id="automat" viewBox="0 0 32 32">
            <path
                d="M12.006 7.003c0-1.658 1.344-3.002 3.002-3.002v0h2.001c1.658 0 3.002 1.344 3.002 3.002v0 2.001c0 1.658-1.344 3.002-3.002 3.002v0 2.001h11.005c0.553 0 1 0.448 1 1.001v0 2.001c0 0.553-0.448 1-1 1s-1-0.448-1-1v0-1h-10.005v1c0 0.553-0.448 1-1 1s-1.001-0.448-1.001-1v0-1h-10.005v1c0 0.553-0.448 1-1 1s-1-0.448-1-1v0-2.001c0-0.553 0.448-1.001 1-1.001v0h11.005v-2.001c-1.658 0-3.002-1.344-3.002-3.002v0-2.001zM17.008 10.005c0.553 0 1-0.448 1-1.001v0-2.001c0-0.553-0.448-1-1-1v0h-2.001c-0.553 0-1.001 0.448-1.001 1v0 2.001c0 0.553 0.448 1.001 1.001 1.001v0h2.001zM0 23.011c0-1.658 1.344-3.002 3.002-3.002v0h2.001c1.658 0 3.002 1.344 3.002 3.002v0 2.001c0 1.658-1.344 3.002-3.002 3.002v0h-2.001c-1.658 0-3.002-1.344-3.002-3.002v0-2.001zM3.002 22.011c-0.553 0-1 0.448-1 1v0 2.001c0 0.553 0.448 1 1 1v0h2.001c0.553 0 1-0.448 1-1v0-2.001c0-0.553-0.448-1-1-1v0h-2.001zM12.006 23.011c0-1.658 1.344-3.002 3.002-3.002v0h2.001c1.658 0 3.002 1.344 3.002 3.002v0 2.001c0 1.658-1.344 3.002-3.002 3.002v0h-2.001c-1.658 0-3.002-1.344-3.002-3.002v0-2.001zM15.007 22.011c-0.553 0-1.001 0.448-1.001 1v0 2.001c0 0.553 0.448 1 1.001 1v0h2.001c0 0 0.001 0 0.002 0 0.552 0 0.999-0.447 0.999-0.999 0-0.001 0-0.001 0-0.002v0-2.001c0-0 0-0.001 0-0.002 0-0.552-0.447-0.999-0.999-0.999-0.001 0-0.001 0-0.002 0h-2.001zM24.012 23.011c0-1.658 1.344-3.002 3.002-3.002v0h2.001c1.658 0 3.002 1.344 3.002 3.002v0 2.001c0 1.658-1.344 3.002-3.002 3.002v0h-2.001c-1.658 0-3.002-1.344-3.002-3.002v0-2.001zM27.013 22.011c-0 0-0.001 0-0.002 0-0.552 0-0.999 0.447-0.999 0.999 0 0.001 0 0.001 0 0.002v-0 2.001c0 0 0 0.001 0 0.002 0 0.552 0.447 0.999 0.999 0.999 0.001 0 0.001 0 0.002 0h2.001c0 0 0.001 0 0.002 0 0.552 0 0.999-0.447 0.999-0.999 0-0.001 0-0.001 0-0.002v0-2.001c0-0 0-0.001 0-0.002 0-0.552-0.447-0.999-0.999-0.999-0.001 0-0.001 0-0.002 0h-2.001z">
            </path>
        </symbol>
        <symbol id="ac" viewBox="0 0 32 32">
            <path
                d="M25.012 4.002c-2.763 0-5.002 2.24-5.002 5.002v0c0 0.553-0.448 1.001-1 1.001s-1-0.448-1-1.001v0c0-3.868 3.136-7.003 7.003-7.003s7.003 3.136 7.003 7.003c0 3.868-3.136 7.003-7.003 7.003v0h-24.012c-0.553 0-1-0.448-1-1.001s0.448-1.001 1-1.001v0h24.012c2.763 0 5.002-2.24 5.002-5.002s-2.24-5.002-5.002-5.002v0zM11.005 6.003c-1.105 0-2.001 0.896-2.001 2.001v0c0 0.553-0.448 1.001-1.001 1.001s-1-0.448-1-1.001v0c0-2.21 1.792-4.002 4.002-4.002s4.002 1.792 4.002 4.002c0 2.21-1.792 4.002-4.002 4.002v0h-10.005c-0.553 0-1-0.448-1-1.001s0.448-1.001 1-1.001v0h10.005c1.105 0 2.001-0.896 2.001-2.001s-0.896-2.001-2.001-2.001v0zM0 19.009c0-0.553 0.448-1 1-1v0h20.095c3.315 0 6.003 2.688 6.003 6.003s-2.688 6.003-6.003 6.003c-3.315 0-6.003-2.688-6.003-6.003v0c0-0.553 0.448-1 1-1s1 0.448 1 1v0c0 2.21 1.792 4.002 4.002 4.002s4.002-1.792 4.002-4.002c0-2.21-1.792-4.002-4.002-4.002v0h-20.096c-0.552-0.001-0.999-0.448-0.999-1 0 0 0 0 0 0v0z">
            </path>
        </symbol>
        <symbol id="petrol" viewBox="0 0 32 32">
            <path
                d="M6.003 5.002c0-0.553 0.448-1 1-1v0h10.005c0.553 0 1 0.448 1 1v0 10.005c0 0.553-0.448 1.001-1 1.001v0h-10.005c-0.553 0-1-0.448-1-1.001v0-10.005z">
            </path>
            <path
                d="M2.001 4.002c0-2.21 1.792-4.002 4.002-4.002v0h12.006c2.21 0 4.002 1.792 4.002 4.002v0 16.008c2.21 0 4.002 1.792 4.002 4.002v0 1c0 0.553 0.448 1 1 1s1-0.448 1-1v0-9.004h-1c-0.553 0-1-0.448-1-1.001v0-6.253c0-0.553 0.448-1 1-1v0h2.992c-0.022-0.952-0.107-1.79-0.403-2.446-0.163-0.387-0.436-0.701-0.779-0.911l-0.008-0.005c-0.368-0.221-0.928-0.391-1.801-0.391-0.553 0-1-0.448-1-1s0.448-1 1-1v0c1.129-0.003 2.070 0.221 2.825 0.672 0.767 0.456 1.269 1.103 1.588 1.815 0.592 1.311 0.589 2.931 0.589 4.164v6.354c0 0 0 0.001 0 0.002 0 0.553-0.448 1.001-1 1.001h-1v9.004c0 1.658-1.344 3.002-3.002 3.002s-3.002-1.344-3.002-3.002v0-1c0-1.105-0.896-2.001-2.001-2.001v0 8.004h1c0.553 0 1 0.448 1 1s-0.448 1-1 1v0h-22.011c-0.553 0-1-0.448-1-1s0.448-1 1-1v0h1v-26.013zM20.010 4.002c0-1.105-0.896-2.001-2.001-2.001v0h-12.006c-1.105 0-2.001 0.896-2.001 2.001v0 26.013h16.008v-26.013z">
            </path>
        </symbol>
        <symbol id="kitchen" viewBox="0 0 32 32">
            <path
                d="M1 12.006c-0.552 0-1 0.448-1 1.001 0 0.077 0.009 0.151 0.025 0.223l-0.001-0.007 3.306 14.875c0.514 2.258 2.504 3.918 4.882 3.919h11.59c2.378-0.001 4.369-1.661 4.876-3.885l0.006-0.034 0.263-1.18c0.335 0.066 0.721 0.105 1.115 0.105 3.315 0 6.003-2.688 6.003-6.003 0-2.787-1.9-5.131-4.475-5.807l-0.042-0.009 0.442-1.98c0.015-0.065 0.024-0.141 0.024-0.218 0-0.552-0.447-0.999-0.999-0.999-0.001 0-0.001 0-0.002 0h-26.013zM26.013 25.012c-0.001 0-0.003 0-0.004 0-0.222 0-0.439-0.018-0.651-0.053l0.023 0.003 1.735-7.801c1.68 0.501 2.884 2.033 2.884 3.845 0 2.206-1.783 3.995-3.986 4.005h-0.001zM5.283 27.663l-3.035-13.656h23.519l-3.035 13.656c-0.308 1.355-1.502 2.351-2.929 2.352h-11.59c-1.427-0-2.621-0.997-2.926-2.331l-0.004-0.020z">
            </path>
            <path
                d="M8.804 1.601l-0.006 0.008-0.027 0.038c-0.128 0.173-0.263 0.375-0.388 0.584l-0.020 0.036c-0.097 0.151-0.191 0.326-0.272 0.509l-0.010 0.026c-0.053 0.12-0.069 0.184-0.075 0.207v0.008c0.025 0.187 0.090 0.355 0.185 0.501l-0.003-0.005c0.15 0.266 0.357 0.544 0.616 0.89l0.021 0.024c0.235 0.317 0.52 0.695 0.74 1.087 0.224 0.4 0.44 0.911 0.44 1.49 0 0.376-0.13 0.736-0.239 0.989-0.115 0.267-0.25 0.528-0.403 0.776-0.181 0.301-0.349 0.55-0.527 0.791l0.019-0.027-0.035 0.050-0.010 0.016-0.006 0.006c-0.184 0.244-0.474 0.4-0.8 0.4-0.553 0-1-0.448-1-1.001 0-0.226 0.075-0.435 0.202-0.603l-0.002 0.003 0.006-0.008 0.027-0.038c0.146-0.2 0.282-0.407 0.408-0.62 0.097-0.151 0.191-0.326 0.272-0.509l0.010-0.026c0.053-0.12 0.069-0.184 0.075-0.207-0.023-0.19-0.088-0.361-0.184-0.509l0.003 0.005c-0.204-0.339-0.408-0.63-0.63-0.906l0.012 0.015-0.021-0.024c-0.249-0.316-0.493-0.671-0.714-1.041l-0.025-0.046c-0.261-0.425-0.422-0.936-0.44-1.484l-0-0.005c0-0.378 0.13-0.736 0.239-0.989 0.118-0.277 0.267-0.549 0.403-0.776 0.188-0.308 0.355-0.557 0.531-0.8l-0.024 0.035 0.048-0.070c0.185-0.245 0.475-0.402 0.802-0.402 0.553 0 1.001 0.448 1.001 1.001 0 0.226-0.075 0.434-0.201 0.602l0.002-0.003zM14.807 1.601l-0.006 0.008-0.027 0.038c-0.128 0.173-0.263 0.375-0.388 0.584l-0.020 0.036c-0.097 0.151-0.192 0.326-0.273 0.509l-0.010 0.025c-0.051 0.12-0.067 0.184-0.074 0.207v0.008c0.025 0.187 0.090 0.355 0.185 0.501l-0.003-0.005c0.15 0.266 0.357 0.544 0.616 0.89l0.019 0.024c0.237 0.317 0.52 0.695 0.741 1.087 0.224 0.4 0.44 0.911 0.44 1.49 0 0.376-0.13 0.736-0.239 0.989-0.115 0.267-0.25 0.528-0.403 0.776-0.181 0.301-0.348 0.55-0.525 0.791l0.019-0.028-0.037 0.050-0.010 0.016-0.006 0.006c-0.184 0.244-0.474 0.4-0.8 0.4-0.553 0-1.001-0.448-1.001-1.001 0-0.226 0.075-0.435 0.202-0.603l-0.002 0.003 0.006-0.008 0.027-0.038c0.146-0.2 0.282-0.407 0.408-0.62 0.097-0.151 0.192-0.326 0.273-0.509l0.010-0.025c0.051-0.12 0.067-0.184 0.074-0.207-0.023-0.19-0.088-0.361-0.184-0.509l0.003 0.005c-0.204-0.339-0.408-0.63-0.63-0.906l0.012 0.015-0.019-0.024c-0.25-0.316-0.494-0.671-0.716-1.041l-0.025-0.046c-0.261-0.425-0.422-0.936-0.44-1.484l-0-0.005c0-0.378 0.13-0.736 0.239-0.989 0.118-0.277 0.267-0.549 0.403-0.776 0.187-0.308 0.354-0.557 0.53-0.8l-0.024 0.035 0.053-0.070c0.185-0.23 0.466-0.376 0.782-0.376 0.553 0 1.001 0.448 1.001 1 0 0.215-0.068 0.415-0.184 0.578l0.002-0.003zM20.81 1.601l-0.006 0.008-0.027 0.038c-0.128 0.173-0.263 0.375-0.388 0.584l-0.020 0.036c-0.097 0.151-0.192 0.326-0.273 0.509l-0.010 0.025c-0.051 0.12-0.067 0.184-0.074 0.207v0.008c0.025 0.187 0.090 0.355 0.185 0.501l-0.003-0.005c0.15 0.266 0.357 0.544 0.616 0.89l0.019 0.024c0.237 0.317 0.52 0.695 0.741 1.087 0.224 0.4 0.44 0.911 0.44 1.49 0 0.376-0.13 0.736-0.239 0.989-0.131 0.303-0.266 0.558-0.418 0.802l0.015-0.025c-0.18 0.301-0.347 0.551-0.524 0.792l0.020-0.028-0.038 0.050-0.010 0.016-0.006 0.006c-0.184 0.244-0.474 0.4-0.8 0.4-0.553 0-1-0.448-1-1.001 0-0.226 0.075-0.435 0.202-0.603l-0.002 0.003 0.006-0.008 0.027-0.038c0.146-0.2 0.282-0.407 0.408-0.62 0.107-0.171 0.202-0.349 0.283-0.535 0.051-0.12 0.067-0.184 0.074-0.207-0.023-0.19-0.088-0.361-0.184-0.509l0.003 0.005c-0.204-0.339-0.408-0.63-0.63-0.906l0.012 0.016-0.019-0.024c-0.25-0.316-0.494-0.671-0.716-1.041l-0.025-0.046c-0.261-0.425-0.423-0.936-0.44-1.484l-0-0.005c0-0.378 0.13-0.736 0.239-0.989 0.135-0.306 0.27-0.561 0.42-0.806l-0.017 0.029c0.16-0.263 0.328-0.517 0.506-0.765l0.053-0.070c0.185-0.23 0.466-0.376 0.782-0.376 0.553 0 1 0.448 1 1 0 0.215-0.068 0.415-0.184 0.578l0.002-0.003z">
            </path>
        </symbol>
        <symbol id="radio" viewBox="0 0 32 32">
            <path
                d="M14.007 5.002c0-0.553 0.448-1 1.001-1v0h14.007c0.553 0 1 0.448 1 1v0 2.001c0 0.553-0.448 1.001-1 1.001v0h-14.007c-0.553 0-1.001-0.448-1.001-1v0-2.001zM0 24.012c0-3.315 2.688-6.003 6.003-6.003s6.003 2.688 6.003 6.003v0c0 3.315-2.688 6.003-6.003 6.003s-6.003-2.688-6.003-6.003v0zM14.007 21.010c0-0.553 0.448-1 1.001-1v0h14.007c0 0 0.001 0 0.002 0 0.552 0 0.999 0.447 0.999 0.999 0 0.001 0 0.001 0 0.002v-0 2.001c0 0 0 0.001 0 0.002 0 0.552-0.447 0.999-0.999 0.999-0.001 0-0.001 0-0.002 0h-14.007c-0.553 0-1.001-0.448-1.001-1v0-2.001zM14.007 11.005c0-0.553 0.448-1.001 1.001-1.001v0h10.005c0.553 0 1 0.448 1 1.001s-0.448 1.001-1 1.001v0h-10.005c-0.553 0-1.001-0.448-1.001-1.001v0zM14.007 27.013c0-0.553 0.448-1 1.001-1v0h10.005c0.553 0 1 0.448 1 1s-0.448 1-1 1v0h-10.005c-0.553 0-1.001-0.448-1.001-1v0zM6.003 2.001c-3.315 0-6.003 2.688-6.003 6.003s2.688 6.003 6.003 6.003v0c3.315 0 6.003-2.688 6.003-6.003s-2.688-6.003-6.003-6.003v0zM6.003 11.005c-1.658 0-3.002-1.344-3.002-3.002s1.344-3.002 3.002-3.002v0c1.658 0 3.002 1.344 3.002 3.002s-1.344 3.002-3.002 3.002v0z">
            </path>
        </symbol>
        <symbol id="bathroom" viewBox="0 0 32 32">
            <path
                d="M14.426 1.601c0.96-1.010 1.582-1.601 1.582-1.601 0.219 0.725 0.466 1.418 0.743 2.078 1.625 3.893 4.148 6.703 6.397 9.205 2.62 2.917 4.866 5.414 4.866 8.728 0 6.631-5.375 12.006-12.006 12.006s-12.006-5.375-12.006-12.006v0c0-6.667 7.164-14.974 10.424-18.409zM15.254 3.643c-1.222 1.318-2.42 2.732-3.555 4.199l-0.106 0.143c-1.452 1.9-2.873 4.018-3.922 6.142-1.060 2.147-1.668 4.159-1.668 5.883 0 5.526 4.479 10.005 10.005 10.005s10.005-4.479 10.005-10.005v0c0-2.403-1.593-4.316-4.364-7.404l-0.061-0.064c-2.079-2.316-4.58-5.097-6.334-8.899z">
            </path>
            <path
                d="M9.11 15.56c1.641-3.283 3.437-5.508 4.188-6.264l1.418 1.417c-0.581 0.581-2.257 2.625-3.816 5.744l-1.791-0.896z">
            </path>
        </symbol>
        <symbol id="adults" viewBox="0 0 32 32">
            <path
                d="M30.015 28.008s2.001 0 2.001-2.001-2.001-8.004-10.005-8.004-10.005 6.003-10.005 8.004 2.001 2.001 2.001 2.001h16.008zM14.050 26.007l-0.043-0.008c0.002-0.528 0.335-2.060 1.521-3.442 1.105-1.295 3.045-2.553 6.483-2.553 3.435 0 5.377 1.26 6.483 2.553 1.186 1.38 1.516 2.915 1.521 3.442l-0.016 0.005-0.027 0.003h-15.921zM22.011 14.001c2.21 0 4.002-1.792 4.002-4.002s-1.792-4.002-4.002-4.002v0c-2.21 0-4.002 1.792-4.002 4.002s1.792 4.002 4.002 4.002v0zM28.014 9.999c0.001 0.041 0.002 0.090 0.002 0.139 0 3.315-2.688 6.003-6.003 6.003s-6.003-2.688-6.003-6.003c0-0.049 0.001-0.097 0.002-0.146l-0 0.007c0.078-3.255 2.735-5.864 6.001-5.864s5.924 2.609 6.001 5.857l0 0.007zM13.879 18.564c-0.714-0.233-1.549-0.407-2.411-0.491l-0.049-0.004c-0.406-0.042-0.878-0.066-1.356-0.066-0.020 0-0.041 0-0.061 0h0.003c-8.004 0-10.005 6.003-10.005 8.004 0 1.333 0.668 2.001 2.001 2.001h8.436c-0.273-0.562-0.433-1.224-0.433-1.922 0-0.028 0-0.056 0.001-0.083l-0 0.004c0-2.020 0.754-4.087 2.18-5.811 0.506-0.607 1.061-1.143 1.669-1.615l0.024-0.018zM9.845 20.004c-1.137 1.688-1.822 3.764-1.841 5.998l-0 0.005h-6.003c0-0.52 0.328-2.060 1.521-3.45 1.090-1.273 2.985-2.513 6.323-2.552v-0.002zM3.002 11c0-3.315 2.688-6.003 6.003-6.003s6.003 2.688 6.003 6.003v0c0 3.315-2.688 6.003-6.003 6.003s-6.003-2.688-6.003-6.003v0zM9.004 6.998c-2.21 0-4.002 1.792-4.002 4.002s1.792 4.002 4.002 4.002v0c2.21 0 4.002-1.792 4.002-4.002s-1.792-4.002-4.002-4.002v0z">
            </path>
        </symbol>
        <symbol id="tv" viewBox="0 0 32 32">
            <path
                d="M0 8.002s0-4.001 4.001-4.001h24.004s4.001 0 4.001 4.001v12.002s0 4.001-4.001 4.001h-8.002c0 1.333 0.167 2.333 0.5 3.001h1.5c0.552 0 1 0.448 1 1s-0.448 1-1 1v0h-12.002c-0.552 0-1-0.448-1-1s0.448-1 1-1v0h1.5c0.333-0.667 0.5-1.667 0.5-3.001h-8.002s-4.001 0-4.001-4.001v-12.002zM2.797 6.291c-0.218 0.153-0.391 0.357-0.504 0.595l-0.004 0.009c-0.161 0.329-0.264 0.713-0.288 1.118l-0 0.008v11.982c0 0.65 0.156 1.004 0.29 1.204 0.14 0.208 0.341 0.377 0.604 0.508 0.338 0.162 0.703 0.259 1.076 0.286l0.050 0.002h23.984c0.65 0 1.004-0.156 1.204-0.29 0.218-0.153 0.391-0.357 0.504-0.595l0.004-0.009c0.162-0.338 0.259-0.703 0.286-1.076l0.002-0.050v-11.982c0-0.65-0.156-1.004-0.29-1.204-0.153-0.218-0.357-0.391-0.595-0.504l-0.009-0.004c-0.329-0.161-0.713-0.264-1.118-0.288l-0.008-0h-23.984c-0.65 0-1.004 0.156-1.204 0.29z">
            </path>
        </symbol>
        <symbol id="van" viewBox="0 0 32 32">
            <path
                d="M12.002 2h-10.002v28.005h10.002v-28.005zM30.006 2h-10.002v10.002h10.002v-10.002zM30.006 20.004v10.002h-10.002v-10.002h10.002zM0 2c0-1.105 0.896-2 2-2v0h10.002c1.105 0 2 0.896 2 2v0 28.005c0 1.105-0.896 2-2 2v0h-10.002c-1.105 0-2-0.896-2-2v0-28.005zM18.003 2c0-1.105 0.896-2 2-2v0h10.002c1.105 0 2 0.896 2 2v0 10.002c0 1.105-0.896 2-2 2v0h-10.002c-1.105 0-2-0.896-2-2v0-10.002zM20.004 18.003c-1.105 0-2 0.896-2 2v0 10.002c0 1.105 0.896 2 2 2v0h10.002c1.105 0 2-0.896 2-2v0-10.002c0-1.105-0.896-2-2-2v0h-10.002z">
            </path>
        </symbol>
        <symbol id="fully" viewBox="0 0 32 32">
            <path
                d="M2 5.001c0-1.657 1.343-3.001 3.001-3.001v0h6.001c1.657 0 3.001 1.343 3.001 3.001v0 6.001c0 1.657-1.343 3.001-3.001 3.001v0h-6.001c-1.657 0-3.001-1.343-3.001-3.001v0-6.001zM5.001 4.001c-0.552 0-1 0.448-1 1v0 6.001c0 0.552 0.448 1 1 1v0h6.001c0.552 0 1-0.448 1-1v0-6.001c0-0.552-0.448-1-1-1v0h-6.001zM18.003 5.001c0-1.657 1.343-3.001 3.001-3.001v0h6.001c1.657 0 3.001 1.343 3.001 3.001v0 6.001c0 1.657-1.343 3.001-3.001 3.001v0h-6.001c-1.657 0-3.001-1.343-3.001-3.001v0-6.001zM21.004 4.001c-0.552 0-1 0.448-1 1v0 6.001c0 0.552 0.448 1 1 1v0h6.001c0.552 0 1-0.448 1-1v0-6.001c0-0.552-0.448-1-1-1v0h-6.001zM2 21.004c0-1.657 1.343-3.001 3.001-3.001v0h6.001c1.657 0 3.001 1.343 3.001 3.001v0 6.001c0 1.657-1.343 3.001-3.001 3.001v0h-6.001c-1.657 0-3.001-1.343-3.001-3.001v0-6.001zM5.001 20.004c-0.552 0-1 0.448-1 1v0 6.001c0 0.552 0.448 1 1 1v0h6.001c0.552 0 1-0.448 1-1v0-6.001c0-0.552-0.448-1-1-1v0h-6.001zM18.003 21.004c0-1.657 1.343-3.001 3.001-3.001v0h6.001c1.657 0 3.001 1.343 3.001 3.001v0 6.001c0 1.657-1.343 3.001-3.001 3.001v0h-6.001c-1.657 0-3.001-1.343-3.001-3.001v0-6.001zM21.004 20.004c-0.552 0-1 0.448-1 1v0 6.001c0 0.552 0.448 1 1 1v0h6.001c0.552 0 1-0.448 1-1v0-6.001c0-0.552-0.448-1-1-1v0h-6.001z">
            </path>
        </symbol>
        <symbol id="alcove" viewBox="0 0 32 32">
            <path
                d="M8.002 4.001v4.001h-4.001v-4.001h4.001zM10.002 28.005v-4.001c0-1.105-0.896-2-2-2v0h-4.001c-1.105 0-2 0.896-2 2v0 4.001c0 1.105 0.896 2 2 2v0h4.001c1.105 0 2-0.896 2-2v0zM10.002 18.003v-4.001c0-1.105-0.896-2-2-2v0h-4.001c-1.105 0-2 0.896-2 2v0 4.001c0 1.105 0.896 2 2 2v0h4.001c1.105 0 2-0.896 2-2v0zM10.002 8.002v-4.001c0-1.105-0.896-2-2-2v0h-4.001c-1.105 0-2 0.896-2 2v0 4.001c0 1.105 0.896 2 2 2v0h4.001c1.105 0 2-0.896 2-2v0zM20.004 28.005v-4.001c0-1.105-0.896-2-2-2v0h-4.001c-1.105 0-2 0.896-2 2v0 4.001c0 1.105 0.896 2 2 2v0h4.001c1.105 0 2-0.896 2-2v0zM20.004 18.003v-4.001c0-1.105-0.896-2-2-2v0h-4.001c-1.105 0-2 0.896-2 2v0 4.001c0 1.105 0.896 2 2 2v0h4.001c1.105 0 2-0.896 2-2v0zM20.004 8.002v-4.001c0-1.105-0.896-2-2-2v0h-4.001c-1.105 0-2 0.896-2 2v0 4.001c0 1.105 0.896 2 2 2v0h4.001c1.105 0 2-0.896 2-2v0zM18.003 4.001v4.001h-4.001v-4.001h4.001zM28.005 4.001v4.001h-4.001v-4.001h4.001zM8.002 14.003v4.001h-4.001v-4.001h4.001zM18.003 14.003v4.001h-4.001v-4.001h4.001zM28.005 14.003h-4.001v4.001h4.001v-4.001zM8.002 24.004v4.001h-4.001v-4.001h4.001zM18.003 24.004v4.001h-4.001v-4.001h4.001zM28.005 24.004v4.001h-4.001v-4.001h4.001zM24.004 2c-1.105 0-2 0.896-2 2v0 4.001c0 1.105 0.896 2 2 2v0h4.001c1.105 0 2-0.896 2-2v0-4.001c0-1.105-0.896-2-2-2v0h-4.001zM22.004 14.003c0-1.105 0.896-2 2-2v0h4.001c1.105 0 2 0.896 2 2v0 4.001c0 1.105-0.896 2-2 2v0h-4.001c-1.105 0-2-0.896-2-2v0-4.001zM24.004 22.004c-1.105 0-2 0.896-2 2v0 4.001c0 1.105 0.896 2 2 2v0h4.001c1.105 0 2-0.896 2-2v0-4.001c0-1.105-0.896-2-2-2v0h-4.001z">
            </path>
        </symbol>
        <symbol id="heart" viewBox="0 0 32 32">
            <path
                d="M16.003 13.141l-1.788-3.578c-0.444-0.887-1.214-2.16-2.304-3.191-1.072-1.014-2.356-1.704-3.909-1.704-3.353 0-6.001 2.652-6.001 5.841 0 2.423 1.108 4.133 3.737 6.741 0.719 0.705 1.466 1.419 2.222 2.122l0.071 0.065c2.216 2.080 4.973 4.668 7.973 8.13 3.001-3.461 5.757-6.050 7.973-8.13 0.827-0.769 1.574-1.482 2.311-2.205l-0.018 0.018c2.628-2.608 3.737-4.319 3.737-6.741 0-3.189-2.648-5.841-6.001-5.841-1.555 0-2.837 0.691-3.909 1.704-1.091 1.031-1.86 2.304-2.304 3.191l-1.788 3.578zM16.787 29.728c-0.19 0.223-0.47 0.364-0.784 0.364s-0.595-0.141-0.783-0.362l-0.001-0.001c-3.203-3.805-6.101-6.525-8.488-8.764-4.13-3.877-6.731-6.317-6.731-10.455 0-4.33 3.581-7.841 8.002-7.841 3.201 0 5.44 2.1 6.809 4.017 0.52 0.731 0.916 1.432 1.192 1.984 0.347-0.691 0.745-1.354 1.192-1.984 1.37-1.918 3.609-4.017 6.809-4.017 4.421 0 8.002 3.511 8.002 7.841 0 4.138-2.6 6.577-6.731 10.455-2.387 2.24-5.285 4.964-8.488 8.764z">
            </path>
        </symbol>
        <symbol id="rating" viewBox="0 0 32 32">
            <path fill="#ffc531" style="fill: var(--color1, #ffc531)"
                d="M15.116 2.676c0.375-0.711 1.394-0.711 1.769 0l3.777 7.158c0.145 0.274 0.408 0.466 0.714 0.519l7.975 1.38c0.792 0.137 1.107 1.106 0.547 1.682l-5.641 5.804c-0.216 0.222-0.317 0.532-0.273 0.839l1.152 8.010c0.114 0.796-0.71 1.395-1.431 1.040l-7.263-3.571c-0.278-0.137-0.604-0.137-0.882 0l-7.262 3.571c-0.722 0.355-1.546-0.244-1.431-1.040l1.152-8.010c0.044-0.307-0.057-0.617-0.273-0.839l-5.64-5.804c-0.56-0.577-0.246-1.545 0.547-1.682l7.974-1.38c0.306-0.053 0.569-0.244 0.714-0.519l3.776-7.158z">
            </path>
        </symbol>
    </defs>
</svg>